<svg xmlns="http://www.w3.org/2000/svg" viewBox="0 0 395.52 105.95658537140983" height="105.95658537140983" width="395.52"><g><svg viewBox="0 0 518.5140283952572 138.9056834444167" height="105.95658537140983" width="395.52"><g><rect width="4.712840158700533" height="101.15957381278173" x="105.94391033419929" y="18.873054815817483" fill="#67b637" opacity="1" stroke-width="0" stroke="transparent" fill-opacity="1" class="rect-r-0" data-fill-palette-color="primary" rx="1%" id="r-0" data-palette-color="#67b637"/></g><g transform="matrix(1,0,0,1,122.99402839525723,19.124695546695044)"><svg viewBox="0 0 395.52 100.65629235102661" height="100.65629235102661" width="395.52"><g id="textblocktransform"><svg viewBox="0 0 395.52 100.65629235102661" height="100.65629235102661" width="395.52" id="textblock"><g><svg viewBox="0 0 395.52 52.25977186311787" height="52.25977186311787" width="395.52"><g transform="matrix(1,0,0,1,0,0)"><svg width="395.52" viewBox="4.699999809265137 -38.599998474121094 368.16998291015625 48.64999771118164" height="52.25977186311787" data-palette-color="#67b637"><path d="M4.7 0L4.7-35 20-35Q25.6-35 29.95-32.83 34.3-30.65 36.7-26.68 39.1-22.7 39.1-17.5L39.1-17.5Q39.1-12.3 36.7-8.33 34.3-4.35 29.95-2.18 25.6 0 20 0L20 0 4.7 0ZM11.2-5.5L19.7-5.5Q23.55-5.5 26.48-6.98 29.4-8.45 30.98-11.18 32.55-13.9 32.55-17.5L32.55-17.5Q32.55-21.1 30.98-23.83 29.4-26.55 26.48-28.03 23.55-29.5 19.7-29.5L19.7-29.5 11.2-29.5 11.2-5.5ZM70.5-13.2Q70.5-12.55 70.4-11.35L70.4-11.35 49.45-11.35Q50-8.4 52.32-6.68 54.65-4.95 58.1-4.95L58.1-4.95Q62.5-4.95 65.35-7.85L65.35-7.85 68.7-4Q66.9-1.85 64.15-0.75 61.4 0.35 57.95 0.35L57.95 0.35Q53.55 0.35 50.2-1.4 46.85-3.15 45.02-6.28 43.2-9.4 43.2-13.35L43.2-13.35Q43.2-17.25 44.97-20.38 46.75-23.5 49.9-25.25 53.05-27 57-27L57-27Q60.9-27 63.97-25.28 67.05-23.55 68.77-20.43 70.5-17.3 70.5-13.2L70.5-13.2ZM57-22Q54-22 51.92-20.23 49.85-18.45 49.4-15.5L49.4-15.5 64.55-15.5Q64.15-18.4 62.1-20.2 60.05-22 57-22L57-22ZM84.75 0.35Q81.5 0.35 78.4-0.5 75.3-1.35 73.45-2.65L73.45-2.65 75.85-7.4Q77.65-6.2 80.17-5.48 82.7-4.75 85.15-4.75L85.15-4.75Q90.75-4.75 90.75-7.7L90.75-7.7Q90.75-9.1 89.32-9.65 87.9-10.2 84.75-10.7L84.75-10.7Q81.45-11.2 79.37-11.85 77.3-12.5 75.77-14.13 74.25-15.75 74.25-18.65L74.25-18.65Q74.25-22.45 77.42-24.73 80.6-27 86-27L86-27Q88.75-27 91.5-26.38 94.25-25.75 96-24.7L96-24.7 93.6-19.95Q90.2-21.95 85.95-21.95L85.95-21.95Q83.2-21.95 81.77-21.13 80.35-20.3 80.35-18.95L80.35-18.95Q80.35-17.45 81.87-16.82 83.4-16.2 86.6-15.65L86.6-15.65Q89.8-15.15 91.85-14.5 93.9-13.85 95.37-12.3 96.85-10.75 96.85-7.9L96.85-7.9Q96.85-4.15 93.6-1.9 90.35 0.35 84.75 0.35L84.75 0.35ZM102.24 0L102.24-26.7 108.49-26.7 108.49 0 102.24 0ZM105.39-31.1Q103.69-31.1 102.54-32.18 101.39-33.25 101.39-34.85L101.39-34.85Q101.39-36.45 102.54-37.52 103.69-38.6 105.39-38.6L105.39-38.6Q107.09-38.6 108.24-37.58 109.39-36.55 109.39-35L109.39-35Q109.39-33.35 108.27-32.23 107.14-31.1 105.39-31.1L105.39-31.1ZM137.24-26.7L143.19-26.7 143.19-4.05Q143.19 10.05 128.79 10.05L128.79 10.05Q124.94 10.05 121.49 9.08 118.04 8.1 115.79 6.25L115.79 6.25 118.59 1.55Q120.34 3 123.02 3.88 125.69 4.75 128.44 4.75L128.44 4.75Q132.84 4.75 134.89 2.75 136.94 0.75 136.94-3.35L136.94-3.35 136.94-4.75Q135.34-3 133.04-2.1 130.74-1.2 127.99-1.2L127.99-1.2Q124.19-1.2 121.12-2.83 118.04-4.45 116.27-7.4 114.49-10.35 114.49-14.15L114.49-14.15Q114.49-17.95 116.27-20.88 118.04-23.8 121.12-25.4 124.19-27 127.99-27L127.99-27Q130.89-27 133.27-26.05 135.64-25.1 137.24-23.15L137.24-23.15 137.24-26.7ZM128.94-6.5Q132.49-6.5 134.77-8.63 137.04-10.75 137.04-14.15L137.04-14.15Q137.04-17.5 134.77-19.6 132.49-21.7 128.94-21.7L128.94-21.7Q125.34-21.7 123.07-19.6 120.79-17.5 120.79-14.15L120.79-14.15Q120.79-10.75 123.07-8.63 125.34-6.5 128.94-6.5L128.94-6.5ZM166.54-27Q171.59-27 174.64-24.05 177.69-21.1 177.69-15.3L177.69-15.3 177.69 0 171.44 0 171.44-14.5Q171.44-18 169.79-19.78 168.14-21.55 165.09-21.55L165.09-21.55Q161.64-21.55 159.64-19.48 157.64-17.4 157.64-13.5L157.64-13.5 157.64 0 151.39 0 151.39-26.7 157.34-26.7 157.34-23.25Q158.89-25.1 161.24-26.05 163.59-27 166.54-27L166.54-27ZM210.88 0.5Q206.83 0.5 203.06-0.65 199.28-1.8 197.08-3.7L197.08-3.7 199.33-8.75Q201.48-7.05 204.61-5.98 207.73-4.9 210.88-4.9L210.88-4.9Q214.78-4.9 216.71-6.15 218.63-7.4 218.63-9.45L218.63-9.45Q218.63-10.95 217.56-11.93 216.48-12.9 214.83-13.45 213.18-14 210.33-14.7L210.33-14.7Q206.33-15.65 203.86-16.6 201.38-17.55 199.61-19.58 197.83-21.6 197.83-25.05L197.83-25.05Q197.83-27.95 199.41-30.33 200.98-32.7 204.16-34.1 207.33-35.5 211.93-35.5L211.93-35.5Q215.13-35.5 218.23-34.7 221.33-33.9 223.58-32.4L223.58-32.4 221.53-27.35Q219.23-28.7 216.73-29.4 214.23-30.1 211.88-30.1L211.88-30.1Q208.03-30.1 206.16-28.8 204.28-27.5 204.28-25.35L204.28-25.35Q204.28-23.85 205.36-22.9 206.43-21.95 208.08-21.4 209.73-20.85 212.58-20.15L212.58-20.15Q216.48-19.25 218.98-18.28 221.48-17.3 223.26-15.3 225.03-13.3 225.03-9.9L225.03-9.9Q225.03-7 223.46-4.65 221.88-2.3 218.68-0.9 215.48 0.5 210.88 0.5L210.88 0.5ZM245.18-5.9L246.93-1.45Q245.83-0.55 244.26-0.1 242.68 0.35 240.93 0.35L240.93 0.35Q236.53 0.35 234.13-1.95 231.73-4.25 231.73-8.65L231.73-8.65 231.73-21.5 227.33-21.5 227.33-26.5 231.73-26.5 231.73-32.6 237.98-32.6 237.98-26.5 245.13-26.5 245.13-21.5 237.98-21.5 237.98-8.8Q237.98-6.85 238.93-5.83 239.88-4.8 241.68-4.8L241.68-4.8Q243.78-4.8 245.18-5.9L245.18-5.9ZM276.28-13.2Q276.28-12.55 276.18-11.35L276.18-11.35 255.23-11.35Q255.78-8.4 258.1-6.68 260.43-4.95 263.88-4.95L263.88-4.95Q268.28-4.95 271.13-7.85L271.13-7.85 274.48-4Q272.68-1.85 269.93-0.75 267.18 0.35 263.73 0.35L263.73 0.35Q259.33 0.35 255.98-1.4 252.63-3.15 250.8-6.28 248.98-9.4 248.98-13.35L248.98-13.35Q248.98-17.25 250.75-20.38 252.53-23.5 255.68-25.25 258.83-27 262.78-27L262.78-27Q266.68-27 269.75-25.28 272.83-23.55 274.55-20.43 276.28-17.3 276.28-13.2L276.28-13.2ZM262.78-22Q259.78-22 257.7-20.23 255.63-18.45 255.18-15.5L255.18-15.5 270.33-15.5Q269.93-18.4 267.88-20.2 265.83-22 262.78-22L262.78-22ZM291.73-27Q297.63-27 300.75-24.18 303.88-21.35 303.88-15.65L303.88-15.65 303.88 0 297.98 0 297.98-3.25Q296.82-1.5 294.7-0.58 292.57 0.35 289.57 0.35L289.57 0.35Q286.57 0.35 284.32-0.68 282.07-1.7 280.85-3.53 279.63-5.35 279.63-7.65L279.63-7.65Q279.63-11.25 282.3-13.43 284.98-15.6 290.73-15.6L290.73-15.6 297.63-15.6 297.63-16Q297.63-18.8 295.95-20.3 294.28-21.8 290.98-21.8L290.98-21.8Q288.73-21.8 286.55-21.1 284.38-20.4 282.88-19.15L282.88-19.15 280.43-23.7Q282.53-25.3 285.48-26.15 288.43-27 291.73-27L291.73-27ZM290.88-4.2Q293.23-4.2 295.05-5.28 296.88-6.35 297.63-8.35L297.63-8.35 297.63-11.45 291.18-11.45Q285.78-11.45 285.78-7.9L285.78-7.9Q285.78-6.2 287.13-5.2 288.48-4.2 290.88-4.2L290.88-4.2ZM311.87 0L311.87-37.1 318.12-37.1 318.12 0 311.87 0ZM351.42-13.2Q351.42-12.55 351.32-11.35L351.32-11.35 330.37-11.35Q330.92-8.4 333.25-6.68 335.57-4.95 339.02-4.95L339.02-4.95Q343.42-4.95 346.27-7.85L346.27-7.85 349.62-4Q347.82-1.85 345.07-0.75 342.32 0.35 338.87 0.35L338.87 0.35Q334.47 0.35 331.12-1.4 327.77-3.15 325.95-6.28 324.12-9.4 324.12-13.35L324.12-13.35Q324.12-17.25 325.9-20.38 327.67-23.5 330.82-25.25 333.97-27 337.92-27L337.92-27Q341.82-27 344.9-25.28 347.97-23.55 349.7-20.43 351.42-17.3 351.42-13.2L351.42-13.2ZM337.92-22Q334.92-22 332.85-20.23 330.77-18.45 330.32-15.5L330.32-15.5 345.47-15.5Q345.07-18.4 343.02-20.2 340.97-22 337.92-22L337.92-22ZM363.37-22.8Q366.07-27 372.87-27L372.87-27 372.87-21.05Q372.07-21.2 371.42-21.2L371.42-21.2Q367.77-21.2 365.72-19.07 363.67-16.95 363.67-12.95L363.67-12.95 363.67 0 357.42 0 357.42-26.7 363.37-26.7 363.37-22.8Z" opacity="1" transform="matrix(1,0,0,1,0,0)" fill="#67b637" class="wordmark-text-0" data-fill-palette-color="primary" id="text-0"/></svg></g></svg></g><g transform="matrix(1,0,0,1,0,64.59704976547528)"><svg viewBox="0 0 242.6557181305648 36.059242585551324" height="36.059242585551324" width="242.6557181305648"><g transform="matrix(1,0,0,1,0,0)"><svg width="242.6557181305648" viewBox="1.9500000476837158 -37.849998474121094 321.9700012207031 47.849998474121094" height="36.059242585551324" data-palette-color="#4f70c2"><path d="M20.5-26.75Q23.9-26.75 26.55-25.38 29.2-24 30.7-21.43 32.2-18.85 32.2-15.35L32.2-15.35Q32.2-10.85 30.25-7.3 28.3-3.75 24.88-1.73 21.45 0.3 17.2 0.3L17.2 0.3Q13.7 0.3 11.23-1 8.75-2.3 7.5-4.8L7.5-4.8 6.5 0 1.95 0 9.35-37.1 14.15-37.1 11.4-23.45Q15.1-26.75 20.5-26.75L20.5-26.75ZM17-3.9Q19.95-3.9 22.3-5.33 24.65-6.75 26-9.3 27.35-11.85 27.35-15.1L27.35-15.1Q27.35-18.65 25.3-20.6 23.25-22.55 19.45-22.55L19.45-22.55Q16.5-22.55 14.13-21.13 11.75-19.7 10.43-17.15 9.1-14.6 9.1-11.35L9.1-11.35Q9.1-7.85 11.18-5.88 13.25-3.9 17-3.9L17-3.9ZM59.15-26.5L64-26.5 45.2 2.9Q42.65 6.9 40.35 8.45 38.05 10 34.9 10L34.9 10Q32.95 10 31.1 9.38 29.25 8.75 28.25 7.65L28.25 7.65 30.75 4.1Q32.55 5.9 35.25 5.9L35.25 5.9Q36.95 5.9 38.25 5 39.55 4.1 40.95 1.95L40.95 1.95 42.3-0.15 35.9-26.5 40.7-26.5 45.8-5.3 59.15-26.5ZM102.89-6.25L105.14-17.7 109.94-17.7 107.19-3.95Q104.69-1.9 101.34-0.75 97.99 0.4 94.44 0.4L94.44 0.4Q89.34 0.4 85.57-1.45 81.79-3.3 79.77-6.63 77.74-9.95 77.74-14.35L77.74-14.35Q77.74-20.2 80.39-25 83.04-29.8 87.94-32.6 92.84-35.4 99.29-35.4L99.29-35.4Q103.84-35.4 107.27-34 110.69-32.6 112.79-30L112.79-30 109.19-26.95Q107.44-29 104.94-29.98 102.44-30.95 99.09-30.95L99.09-30.95Q94.19-30.95 90.49-28.8 86.79-26.65 84.77-22.93 82.74-19.2 82.74-14.65L82.74-14.65Q82.74-9.8 85.89-6.93 89.04-4.05 94.99-4.05L94.99-4.05Q99.34-4.05 102.89-6.25L102.89-6.25ZM124.39-22.55Q126.14-24.75 128.69-25.75 131.24-26.75 134.89-26.75L134.89-26.75 133.99-22.1Q133.54-22.15 132.74-22.15L132.74-22.15Q124.49-22.15 122.74-13.25L122.74-13.25 120.09 0 115.29 0 120.54-26.5 125.14-26.5 124.39-22.55ZM135.44 0L140.69-26.5 145.49-26.5 140.24 0 135.44 0ZM144.49-31.6Q143.19-31.6 142.34-32.45 141.49-33.3 141.49-34.5L141.49-34.5Q141.49-35.9 142.46-36.88 143.44-37.85 144.94-37.85L144.94-37.85Q146.24-37.85 147.11-37.02 147.99-36.2 147.99-35.05L147.99-35.05Q147.99-33.5 147.01-32.55 146.04-31.6 144.49-31.6L144.49-31.6ZM167.94-26.75Q171.34-26.75 173.99-25.38 176.63-24 178.13-21.43 179.63-18.85 179.63-15.35L179.63-15.35Q179.63-10.85 177.69-7.3 175.74-3.75 172.31-1.73 168.88 0.3 164.63 0.3L164.63 0.3Q161.13 0.3 158.66-1 156.19-2.3 154.94-4.8L154.94-4.8 153.94 0 149.38 0 156.78-37.1 161.59-37.1 158.84-23.45Q162.53-26.75 167.94-26.75L167.94-26.75ZM164.44-3.9Q167.38-3.9 169.74-5.33 172.09-6.75 173.44-9.3 174.78-11.85 174.78-15.1L174.78-15.1Q174.78-18.65 172.74-20.6 170.69-22.55 166.88-22.55L166.88-22.55Q163.94-22.55 161.56-21.13 159.19-19.7 157.86-17.15 156.53-14.6 156.53-11.35L156.53-11.35Q156.53-7.85 158.61-5.88 160.69-3.9 164.44-3.9L164.44-3.9ZM208.88-26.5L213.68-26.5 208.43 0 203.83 0 204.48-3.25Q202.68-1.55 200.31-0.63 197.93 0.3 195.13 0.3L195.13 0.3Q191.73 0.3 189.08-1.07 186.43-2.45 184.93-5.05 183.43-7.65 183.43-11.15L183.43-11.15Q183.43-15.65 185.38-19.2 187.33-22.75 190.76-24.75 194.18-26.75 198.43-26.75L198.43-26.75Q201.83-26.75 204.26-25.55 206.68-24.35 207.98-22L207.98-22 208.88-26.5ZM196.18-3.9Q199.13-3.9 201.51-5.33 203.88-6.75 205.21-9.3 206.53-11.85 206.53-15.1L206.53-15.1Q206.53-18.65 204.48-20.6 202.43-22.55 198.63-22.55L198.63-22.55Q195.68-22.55 193.33-21.13 190.98-19.7 189.63-17.15 188.28-14.6 188.28-11.35L188.28-11.35Q188.28-7.85 190.36-5.88 192.43-3.9 196.18-3.9L196.18-3.9ZM236.38-26.75Q240.93-26.75 243.45-24.45 245.98-22.15 245.98-17.95L245.98-17.95Q245.98-16.5 245.68-14.85L245.68-14.85 242.73 0 237.93 0 240.88-14.85Q241.13-16.2 241.13-17.05L241.13-17.05Q241.13-19.65 239.58-21.05 238.03-22.45 234.98-22.45L234.98-22.45Q231.08-22.45 228.56-20.33 226.03-18.2 225.18-14L225.18-14 222.38 0 217.58 0 222.83-26.5 227.43-26.5 226.78-23.1Q230.38-26.75 236.38-26.75L236.38-26.75ZM251.63 0L256.88-26.5 261.68-26.5 256.43 0 251.63 0ZM260.68-31.6Q259.38-31.6 258.53-32.45 257.68-33.3 257.68-34.5L257.68-34.5Q257.68-35.9 258.65-36.88 259.63-37.85 261.13-37.85L261.13-37.85Q262.43-37.85 263.3-37.02 264.18-36.2 264.18-35.05L264.18-35.05Q264.18-33.5 263.2-32.55 262.23-31.6 260.68-31.6L260.68-31.6ZM278.13 0.3Q274.32 0.3 271.48-1.13 268.63-2.55 267.07-5.13 265.52-7.7 265.52-11.15L265.52-11.15Q265.52-15.6 267.52-19.15 269.52-22.7 273.07-24.73 276.63-26.75 281.13-26.75L281.13-26.75Q288.98-26.75 292.02-21L292.02-21 287.98-18.75Q285.88-22.55 280.77-22.55L280.77-22.55Q277.82-22.55 275.45-21.13 273.07-19.7 271.73-17.15 270.38-14.6 270.38-11.35L270.38-11.35Q270.38-7.85 272.45-5.88 274.52-3.9 278.32-3.9L278.32-3.9Q280.73-3.9 282.8-4.85 284.88-5.8 286.23-7.65L286.23-7.65 289.73-5.15Q287.88-2.6 284.77-1.15 281.68 0.3 278.13 0.3L278.13 0.3ZM319.12-26.5L323.92-26.5 318.67 0 314.07 0 314.72-3.25Q312.92-1.55 310.55-0.63 308.17 0.3 305.37 0.3L305.37 0.3Q301.97 0.3 299.32-1.07 296.67-2.45 295.17-5.05 293.67-7.65 293.67-11.15L293.67-11.15Q293.67-15.65 295.62-19.2 297.57-22.75 301-24.75 304.42-26.75 308.67-26.75L308.67-26.75Q312.07-26.75 314.5-25.55 316.92-24.35 318.22-22L318.22-22 319.12-26.5ZM306.42-3.9Q309.37-3.9 311.75-5.33 314.12-6.75 315.45-9.3 316.77-11.85 316.77-15.1L316.77-15.1Q316.77-18.65 314.72-20.6 312.67-22.55 308.87-22.55L308.87-22.55Q305.92-22.55 303.57-21.13 301.22-19.7 299.87-17.15 298.52-14.6 298.52-11.35L298.52-11.35Q298.52-7.85 300.6-5.88 302.67-3.9 306.42-3.9L306.42-3.9Z" opacity="1" transform="matrix(1,0,0,1,0,0)" fill="#4f70c2" class="slogan-text-1" data-fill-palette-color="secondary" id="text-1"/></svg></g></svg></g></svg></g></svg></g><g><svg viewBox="0 0 93.60663243184187 138.9056834444167" height="138.9056834444167" width="93.60663243184187"><g><svg xmlns="http://www.w3.org/2000/svg" xmlns:xlink="http://www.w3.org/1999/xlink" version="1.1" x="0" y="0" viewBox="8.461999893188477 0.12000000476837158 33.88300323486328 50.28000259399414" enable-background="new 0 0 50.4 50.4" xml:space="preserve" height="138.9056834444167" width="93.60663243184187" class="icon-icon-0" data-fill-palette-color="accent" id="icon-0"><g fill="#67b637" data-fill-palette-color="accent"><path d="M33.773 18.787H33.457L25.48 28.49 17.42 18.787H17.042C12.15 18.787 8.462 21.615 8.462 26.607V47.08A3.034 3.034 0 0 0 14.528 47.08L14.53 28.771H16.433V50.4H34.375V28.771H36.272L36.282 47.08A3.032 3.032 0 1 0 42.344 47.08V26.606C42.346 21.614 38.66 18.787 33.773 18.787" fill="#67b637" data-fill-palette-color="accent"/><path d="M33.691 14.694A1.46 1.46 0 0 0 32.537 14.37L32.551 7.264A7.146 7.146 0 0 0 25.408 0.12C21.467 0.12 18.275 3.318 18.275 7.264L18.252 14.355A1.37 1.37 0 0 0 17.204 14.695 1.47 1.47 0 0 0 17.018 16.737L25.477 26.92 33.936 16.628C34.351 16.014 34.269 15.185 33.691 14.694M20.452 8.619A1 1 0 0 1 21.453 7.618H23.705A1 1 0 1 1 23.705 9.62H21.453A1 1 0 0 1 20.452 8.619M25.416 15.664A1.79 1.79 0 1 1 25.417 12.087 1.79 1.79 0 0 1 25.416 15.664M29.296 9.62H27.043A1 1 0 1 1 27.043 7.618H29.296A1 1 0 1 1 29.296 9.62" fill="#67b637" data-fill-palette-color="accent"/></g></svg></g></svg></g></svg></g><defs/></svg>